# xmcd
#
# Track frame offsets: 
#        150
#        23829
#        48001
#        67750
#        89629
#        103923
#        115624
#        129814
#        150760
#        165715
#
# Disc length: 2417 seconds
#
# Revision: 0
# Processed by: cddbd v1.5.2PL0 Copyright (c) Steve Scherf et al.
# Submitted via: ExactAudioCopy v1.0b3
#
DISCID=6a096f0a
DTITLE=Meters - Cabbage alley
DYEAR=1972
DGENRE=Funk
TTITLE0=You've got to change (you've got to reform)
TTITLE1=Stay away
TTITLE2=Birds
TTITLE3=The flower song
TTITLE4=Soul island
TTITLE5=Do the dirt
TTITLE6=Smiling
TTITLE7=Lonesome and unwanted people
TTITLE8=Gettin' funkier all the time
TTITLE9=Cabbage alley
EXTD=
EXTT0=
EXTT1=
EXTT2=
EXTT3=
EXTT4=
EXTT5=
EXTT6=
EXTT7=
EXTT8=
EXTT9=
PLAYORDER=
